<svg width="25" height="28" viewBox="0 0 25 28" fill="none" xmlns="http://www.w3.org/2000/svg">
<rect y="0.692322" width="25" height="26.9231" rx="6" fill="#F5F4F9"/>
<path d="M17.4524 11.6619C17.7308 11.687 17.938 11.9563 17.9152 12.2637C17.9118 12.3148 17.5366 17.4447 17.3204 19.5966C17.1878 20.9239 16.3926 21.7302 15.1946 21.7538C14.284 21.7721 14.0636 21.782 13.1524 21.782C12.9797 21.782 12.8076 21.782 12.6349 21.7813C12.3558 21.7798 12.1299 21.5296 12.1313 21.2206C12.132 20.9132 12.3579 20.6653 12.637 20.6653L12.8937 20.666C13.2172 20.6665 13.4768 20.6655 13.7236 20.6631L14.0907 20.6586C14.3992 20.6539 14.7277 20.6472 15.1759 20.6386C15.8661 20.6241 16.2385 20.2435 16.3152 19.4745C16.5301 17.3379 16.9045 12.2248 16.908 12.1737C16.9301 11.8663 17.1774 11.6458 17.4524 11.6619ZM7.5475 11.6616C7.82592 11.6479 8.0698 11.8668 8.09191 12.1742C8.09536 12.2253 8.46705 17.3247 8.68398 19.4781C8.75929 20.231 9.12683 20.6201 9.77625 20.6353C10.0554 20.6414 10.2771 20.897 10.2716 21.2051C10.2654 21.5095 10.0402 21.7513 9.76588 21.7513H9.75552C8.60453 21.7246 7.80934 20.9015 7.67877 19.6025C7.46045 17.4315 7.08807 12.3146 7.08462 12.2627C7.06182 11.9561 7.26908 11.6868 7.5475 11.6616ZM13.965 6.52563C14.5937 6.52563 15.1464 6.994 15.3094 7.66527C15.382 7.96353 15.2217 8.26942 14.9522 8.34951C14.6835 8.42961 14.4058 8.25263 14.3332 7.95438C14.2883 7.77054 14.137 7.64239 13.965 7.64239H11.035C10.863 7.64239 10.7117 7.77054 10.6668 7.95438L10.5058 8.84915C10.4837 8.96967 10.4492 9.08257 10.4077 9.19318H18.3693C18.6484 9.19318 18.875 9.44262 18.875 9.75079C18.875 10.0597 18.6484 10.3092 18.3693 10.3092H6.63003C6.35091 10.3092 6.125 10.0597 6.125 9.75079C6.125 9.44262 6.35091 9.19318 6.63003 9.19318H8.89262C9.19384 9.19318 9.45568 8.95594 9.51441 8.63099L9.68298 7.70036C9.85362 6.994 10.4063 6.52563 11.035 6.52563H13.965Z" fill="#777777"/>
<path d="M10.375 13.0096H14.625" stroke="#777777" stroke-linecap="round"/>
<path d="M10.375 15.2981H14.625" stroke="#777777" stroke-linecap="round"/>
</svg>
