<svg width="25" height="28" viewBox="0 0 25 28" fill="none" xmlns="http://www.w3.org/2000/svg">
<rect y="0.692322" width="25" height="26.9231" rx="6" fill="#F5F4F9"/>
<path d="M11.7917 6.52563H10.3751C6.83341 6.52563 5.41675 8.05128 5.41675 11.8654V16.4423C5.41675 20.2564 6.83341 21.782 10.3751 21.782H14.6251C18.1667 21.782 19.5834 20.2564 19.5834 16.4423V14.9167" stroke="#777777" stroke-width="1.2" stroke-linecap="round" stroke-linejoin="round"/>
<path d="M15.3616 7.3037L9.77991 13.3147C9.56741 13.5436 9.35491 13.9936 9.31241 14.3217L9.00783 16.6177C8.8945 17.4492 9.43991 18.029 10.212 17.9145L12.3441 17.5865C12.6416 17.5408 13.0595 17.3119 13.2791 17.0831L18.8607 11.072C19.8241 10.0346 20.2774 8.82935 18.8607 7.3037C17.4441 5.77806 16.3249 6.26627 15.3616 7.3037Z" stroke="#777777" stroke-width="1.2" stroke-miterlimit="10" stroke-linecap="round" stroke-linejoin="round"/>
<path d="M14.5613 8.16571C15.0359 9.98885 16.3604 11.4153 18.0604 11.934" stroke="#777777" stroke-width="1.2" stroke-miterlimit="10" stroke-linecap="round" stroke-linejoin="round"/>
</svg>
