<svg width="20" height="20" viewBox="0 0 20 20" fill="none" xmlns="http://www.w3.org/2000/svg">
<path d="M14 0.5H6C2.691 0.5 0 3.191 0 6.5V18.5C0 19.052 0.447 19.5 1 19.5H14C17.309 19.5 20 16.809 20 13.5V6.5C20 3.191 17.309 0.5 14 0.5ZM18 13.5C18 15.706 16.206 17.5 14 17.5H2V6.5C2 4.294 3.794 2.5 6 2.5H14C16.206 2.5 18 4.294 18 6.5V13.5Z" fill="#6E6D71"/>
<path d="M7.5 11.5C8.32843 11.5 9 10.8284 9 10C9 9.17157 8.32843 8.5 7.5 8.5C6.67157 8.5 6 9.17157 6 10C6 10.8284 6.67157 11.5 7.5 11.5Z" fill="#6E6D71"/>
<path d="M12.5 11.5C13.3284 11.5 14 10.8284 14 10C14 9.17157 13.3284 8.5 12.5 8.5C11.6716 8.5 11 9.17157 11 10C11 10.8284 11.6716 11.5 12.5 11.5Z" fill="#6E6D71"/>
</svg>
